<!-- icon666.com - MILLIONS vector ICONS FREE --><svg id="Layer_1" viewBox="0 0 32 32" xmlns="http://www.w3.org/2000/svg" data-name="Layer 1"><path d="m16 3a13 13 0 1 0 13 13 13.015 13.015 0 0 0 -13-13zm0 24a11 11 0 1 1 11-11 11.013 11.013 0 0 1 -11 11z" fill="#000000" style="fill: rgb(82, 125, 255);"></path><path d="m21.707 10.293a1 1 0 0 0 -1.414 0l-4.293 4.293-4.293-4.293a1 1 0 0 0 -1.414 1.414l4.293 4.293-4.293 4.293a1 1 0 0 0 1.414 1.414l4.293-4.293 4.293 4.293a1 1 0 0 0 1.414-1.414l-4.293-4.293 4.293-4.293a1 1 0 0 0 0-1.414z" fill="#000000" style="fill: rgb(82, 125, 255);"></path></svg>