<svg width="26" height="26" viewBox="0 0 26 26" fill="none" xmlns="http://www.w3.org/2000/svg">
<path d="M13 0C10.4288 0 7.91543 0.762437 5.77759 2.1909C3.63975 3.61935 1.97351 5.64968 0.989572 8.02512C0.0056327 10.4006 -0.251811 13.0144 0.249797 15.5362C0.751405 18.0579 1.98953 20.3743 3.80762 22.1924C5.6257 24.0105 7.94208 25.2486 10.4638 25.7502C12.9856 26.2518 15.5995 25.9944 17.9749 25.0104C20.3503 24.0265 22.3807 22.3603 23.8091 20.2224C25.2376 18.0846 26 15.5712 26 13C25.996 9.5534 24.6251 6.24911 22.188 3.812C19.7509 1.37488 16.4466 0.00396997 13 0ZM13 24C10.8244 24 8.69767 23.3549 6.88873 22.1462C5.07979 20.9375 3.66989 19.2195 2.83733 17.2095C2.00477 15.1995 1.78693 12.9878 2.21137 10.854C2.63581 8.72022 3.68345 6.7602 5.22183 5.22183C6.76021 3.68345 8.72022 2.6358 10.854 2.21136C12.9878 1.78692 15.1995 2.00476 17.2095 2.83733C19.2195 3.66989 20.9375 5.07979 22.1462 6.88873C23.3549 8.69767 24 10.8244 24 13C23.9966 15.9163 22.8365 18.7122 20.7744 20.7744C18.7122 22.8365 15.9163 23.9966 13 24Z" fill="#527DFF"/>
<path d="M18.707 7.29303C18.5195 7.10556 18.2651 7.00024 18 7.00024C17.7348 7.00024 17.4805 7.10556 17.293 7.29303L13 11.586L8.70698 7.29303C8.51838 7.11087 8.26578 7.01008 8.00358 7.01236C7.74138 7.01464 7.49057 7.1198 7.30516 7.30521C7.11975 7.49062 7.01458 7.74143 7.01231 8.00363C7.01003 8.26583 7.11082 8.51843 7.29298 8.70703L11.586 13L7.29298 17.293C7.11082 17.4816 7.01003 17.7342 7.01231 17.9964C7.01458 18.2586 7.11975 18.5094 7.30516 18.6948C7.49057 18.8803 7.74138 18.9854 8.00358 18.9877C8.26578 18.99 8.51838 18.8892 8.70698 18.707L13 14.414L17.293 18.707C17.4816 18.8892 17.7342 18.99 17.9964 18.9877C18.2586 18.9854 18.5094 18.8803 18.6948 18.6948C18.8802 18.5094 18.9854 18.2586 18.9877 17.9964C18.9899 17.7342 18.8891 17.4816 18.707 17.293L14.414 13L18.707 8.70703C18.8945 8.5195 18.9998 8.26519 18.9998 8.00003C18.9998 7.73487 18.8945 7.48056 18.707 7.29303Z" fill="#527DFF"/>
</svg>
