<svg width="92" height="22" viewBox="0 0 92 22" fill="none" xmlns="http://www.w3.org/2000/svg">
<path d="M7.068 13.83V16.195H21.215V13.83H7.068ZM7.068 8.541H23.967C24.3683 8.541 24.7697 8.64133 25.171 8.842C25.601 9.04267 25.9737 9.315 26.289 9.659C26.633 9.97433 26.9053 10.347 27.106 10.777C27.3067 11.1783 27.407 11.594 27.407 12.024V18.517C27.407 18.947 27.3067 19.377 27.106 19.807C26.9053 20.2083 26.633 20.581 26.289 20.925C25.9737 21.2403 25.601 21.4983 25.171 21.699C24.7697 21.8997 24.3683 22 23.967 22H4.316C3.91467 22 3.499 21.8997 3.069 21.699C2.66767 21.4983 2.295 21.2403 1.951 20.925C1.63567 20.581 1.37767 20.2083 1.177 19.807C0.976333 19.377 0.876 18.947 0.876 18.517V3.854C0.876 3.424 0.976333 3.00833 1.177 2.607C1.37767 2.177 1.63567 1.80433 1.951 1.489C2.295 1.145 2.66767 0.872666 3.069 0.671999C3.499 0.471332 3.91467 0.370999 4.316 0.370999H27.407V6.176H7.068V8.541ZM65.8571 22H59.6651V3.08C59.6651 2.76467 59.7511 2.44933 59.9231 2.134C60.1237 1.79 60.3817 1.489 60.6971 1.231C61.0124 0.972999 61.3851 0.772333 61.8151 0.629C62.2451 0.456999 62.7037 0.370999 63.1911 0.370999H64.8681C65.6421 0.485666 66.3874 0.772333 67.1041 1.231C67.8494 1.68967 68.4371 2.27733 68.8671 2.994L75.7471 14.346L82.6271 2.994C83.0571 2.27733 83.6304 1.68967 84.3471 1.231C85.0924 0.772333 85.8521 0.485666 86.6261 0.370999H88.3031C88.7904 0.370999 89.2491 0.456999 89.6791 0.629C90.1091 0.772333 90.4817 0.972999 90.7971 1.231C91.1124 1.489 91.3561 1.79 91.5281 2.134C91.7287 2.44933 91.8291 2.76467 91.8291 3.08V22H85.6371V9.917C84.2611 12.3537 82.9567 14.475 81.7241 16.281C80.5201 18.0583 79.6171 19.3627 79.0151 20.194C78.4417 20.9967 77.8971 21.4983 77.3811 21.699C76.8937 21.8997 76.5067 22 76.2201 22H75.2741C74.8154 22 74.3711 21.8997 73.9411 21.699C73.5397 21.4983 73.0524 20.9967 72.4791 20.194C71.8771 19.3627 70.9597 18.0583 69.7271 16.281C68.5231 14.475 67.2331 12.3537 65.8571 9.917V22Z" fill="#D757F6"/>
<path d="M51.9886 0.413999C52.0172 0.385332 52.1032 0.370999 52.2466 0.370999H53.4076C53.8949 0.370999 54.3536 0.456999 54.7836 0.629C55.2136 0.772333 55.5862 0.972999 55.9016 1.231C56.2169 1.489 56.4606 1.79 56.6326 2.134C56.8332 2.44933 56.9336 2.76467 56.9336 3.08V22H50.7416V8.455C48.3336 10.777 46.2409 12.7837 44.4636 14.475C42.7149 16.1377 41.2099 17.5137 39.9486 18.603C38.7159 19.6923 37.6982 20.5093 36.8956 21.054C36.1216 21.5987 35.5052 21.8997 35.0466 21.957C35.0179 21.9857 34.9462 22 34.8316 22H33.6276C33.1689 22 32.7246 21.9283 32.2946 21.785C31.8646 21.613 31.4919 21.398 31.1766 21.14C30.8612 20.882 30.6032 20.5953 30.4026 20.28C30.2306 19.9647 30.1446 19.635 30.1446 19.291V0.370999H36.3366V13.873C38.8306 11.5223 40.9519 9.51567 42.7006 7.853C44.4779 6.16167 45.9686 4.78567 47.1726 3.725C48.3766 2.63567 49.3512 1.833 50.0966 1.317C50.8706 0.772333 51.5012 0.471333 51.9886 0.413999Z" fill="#1464F6"/>
</svg>
