<svg width="92" height="22" viewBox="0 0 92 22" fill="none" xmlns="http://www.w3.org/2000/svg">
<path d="M6.568 13.83V16.195H20.715V13.83H6.568ZM6.568 8.541H23.467C23.8683 8.541 24.2697 8.64133 24.671 8.842C25.101 9.04267 25.4737 9.315 25.789 9.659C26.133 9.97433 26.4053 10.347 26.606 10.777C26.8067 11.1783 26.907 11.594 26.907 12.024V18.517C26.907 18.947 26.8067 19.377 26.606 19.807C26.4053 20.2083 26.133 20.581 25.789 20.925C25.4737 21.2403 25.101 21.4983 24.671 21.699C24.2697 21.8997 23.8683 22 23.467 22H3.816C3.41467 22 2.999 21.8997 2.569 21.699C2.16767 21.4983 1.795 21.2403 1.451 20.925C1.13567 20.581 0.877667 20.2083 0.677 19.807C0.476333 19.377 0.376 18.947 0.376 18.517V3.854C0.376 3.424 0.476333 3.00833 0.677 2.607C0.877667 2.177 1.13567 1.80433 1.451 1.489C1.795 1.145 2.16767 0.872666 2.569 0.671999C2.999 0.471332 3.41467 0.370999 3.816 0.370999H26.907V6.176H6.568V8.541ZM65.3571 22H59.1651V3.08C59.1651 2.76467 59.2511 2.44933 59.4231 2.134C59.6237 1.79 59.8817 1.489 60.1971 1.231C60.5124 0.972999 60.8851 0.772333 61.3151 0.629C61.7451 0.456999 62.2037 0.370999 62.6911 0.370999H64.3681C65.1421 0.485666 65.8874 0.772333 66.6041 1.231C67.3494 1.68967 67.9371 2.27733 68.3671 2.994L75.2471 14.346L82.1271 2.994C82.5571 2.27733 83.1304 1.68967 83.8471 1.231C84.5924 0.772333 85.3521 0.485666 86.1261 0.370999H87.8031C88.2904 0.370999 88.7491 0.456999 89.1791 0.629C89.6091 0.772333 89.9817 0.972999 90.2971 1.231C90.6124 1.489 90.8561 1.79 91.0281 2.134C91.2287 2.44933 91.3291 2.76467 91.3291 3.08V22H85.1371V9.917C83.7611 12.3537 82.4567 14.475 81.2241 16.281C80.0201 18.0583 79.1171 19.3627 78.5151 20.194C77.9417 20.9967 77.3971 21.4983 76.8811 21.699C76.3937 21.8997 76.0067 22 75.7201 22H74.7741C74.3154 22 73.8711 21.8997 73.4411 21.699C73.0397 21.4983 72.5524 20.9967 71.9791 20.194C71.3771 19.3627 70.4597 18.0583 69.2271 16.281C68.0231 14.475 66.7331 12.3537 65.3571 9.917V22Z" fill="white"/>
<path d="M51.4886 0.413999C51.5172 0.385332 51.6032 0.370999 51.7466 0.370999H52.9076C53.3949 0.370999 53.8536 0.456999 54.2836 0.629C54.7136 0.772333 55.0862 0.972999 55.4016 1.231C55.7169 1.489 55.9606 1.79 56.1326 2.134C56.3332 2.44933 56.4336 2.76467 56.4336 3.08V22H50.2416V8.455C47.8336 10.777 45.7409 12.7837 43.9636 14.475C42.2149 16.1377 40.7099 17.5137 39.4486 18.603C38.2159 19.6923 37.1982 20.5093 36.3956 21.054C35.6216 21.5987 35.0052 21.8997 34.5466 21.957C34.5179 21.9857 34.4462 22 34.3316 22H33.1276C32.6689 22 32.2246 21.9283 31.7946 21.785C31.3646 21.613 30.9919 21.398 30.6766 21.14C30.3612 20.882 30.1032 20.5953 29.9026 20.28C29.7306 19.9647 29.6446 19.635 29.6446 19.291V0.370999H35.8366V13.873C38.3306 11.5223 40.4519 9.51567 42.2006 7.853C43.9779 6.16167 45.4686 4.78567 46.6726 3.725C47.8766 2.63567 48.8512 1.833 49.5966 1.317C50.3706 0.772333 51.0012 0.471333 51.4886 0.413999Z" fill="#D757F6"/>
</svg>
