<svg width="178" height="23" viewBox="0 0 178 23" fill="none" xmlns="http://www.w3.org/2000/svg">
<path d="M7.068 6.176V22H0.876V3.854C0.876 3.424 0.976333 3.00833 1.177 2.607C1.37767 2.177 1.63567 1.80433 1.951 1.489C2.295 1.145 2.66767 0.872666 3.069 0.671999C3.499 0.471332 3.91467 0.370999 4.316 0.370999H22.032C22.4333 0.370999 22.8347 0.471332 23.236 0.671999C23.666 0.872666 24.0387 1.145 24.354 1.489C24.698 1.80433 24.9703 2.177 25.171 2.607C25.3717 3.00833 25.472 3.424 25.472 3.854V22H19.28V6.176H7.068ZM51.6879 0.370999C52.0892 0.370999 52.4906 0.471332 52.8919 0.671999C53.3219 0.872666 53.6946 1.145 54.0099 1.489C54.3539 1.80433 54.6262 2.177 54.8269 2.607C55.0276 3.00833 55.1279 3.424 55.1279 3.854V18.517C55.1279 18.947 55.0276 19.377 54.8269 19.807C54.6262 20.2083 54.3539 20.581 54.0099 20.925C53.6946 21.2403 53.3219 21.4983 52.8919 21.699C52.4906 21.8997 52.0892 22 51.6879 22H31.7789C31.3776 22 30.9619 21.8997 30.5319 21.699C30.1306 21.4983 29.7579 21.2403 29.4139 20.925C29.0986 20.581 28.8406 20.2083 28.6399 19.807C28.4392 19.377 28.3389 18.947 28.3389 18.517V3.854C28.3389 3.424 28.4392 3.00833 28.6399 2.607C28.8406 2.177 29.0986 1.80433 29.4139 1.489C29.7579 1.145 30.1306 0.872666 30.5319 0.671999C30.9619 0.471332 31.3776 0.370999 31.7789 0.370999H51.6879ZM48.9359 6.176H34.5309V16.195H48.9359V6.176ZM83.6164 2.822C83.9031 3.45267 84.0464 4.26967 84.0464 5.273V22.043H77.8544V8.068C77.8544 7.896 77.7541 7.724 77.5534 7.552C77.3527 7.35133 77.1091 7.251 76.8224 7.251C76.4497 7.251 76.1057 7.35133 75.7904 7.552C75.5037 7.75267 75.2314 7.99633 74.9734 8.283L64.5244 22.043H57.0854L72.1354 1.919C72.7947 1.34567 73.6691 0.944332 74.7584 0.714999C75.8764 0.485666 77.0087 0.370999 78.1554 0.370999C79.0441 0.370999 79.8467 0.442666 80.5634 0.585999C81.2801 0.700666 81.8964 0.944332 82.4124 1.317C82.9284 1.661 83.3297 2.16267 83.6164 2.822ZM127.941 22C127.54 22 127.124 21.8997 126.694 21.699C126.293 21.4983 125.92 21.2403 125.576 20.925C125.261 20.581 125.003 20.2083 124.802 19.807C124.601 19.377 124.501 18.947 124.501 18.517V3.854C124.501 3.424 124.601 3.00833 124.802 2.607C125.003 2.177 125.261 1.80433 125.576 1.489C125.92 1.145 126.293 0.872666 126.694 0.671999C127.124 0.471332 127.54 0.370999 127.941 0.370999H148.753V6.176H130.693V8.541H148.71V13.83H130.693V16.195H148.753V22H127.941ZM158.425 0.370999L163.929 6.692L169.476 0.370999H177.173L167.799 11.207L177.173 22H169.476L163.929 15.679L158.425 22H150.728L160.059 11.207L150.728 0.370999H158.425Z" fill="#D757F6"/>
<path d="M86.792 22V8.627H93.027V22H86.792ZM93.027 0.370999V6.176H86.792V0.370999H93.027ZM95.7783 6.176V0.370999H121.75V6.176H111.86V22H105.668V6.176H95.7783Z" fill="#1464F6"/>
</svg>
