<svg width="177" height="23" viewBox="0 0 177 23" fill="none" xmlns="http://www.w3.org/2000/svg">
<path d="M6.568 6.176V22H0.376V3.854C0.376 3.424 0.476333 3.00833 0.677 2.607C0.877667 2.177 1.13567 1.80433 1.451 1.489C1.795 1.145 2.16767 0.872666 2.569 0.671999C2.999 0.471332 3.41467 0.370999 3.816 0.370999H21.532C21.9333 0.370999 22.3347 0.471332 22.736 0.671999C23.166 0.872666 23.5387 1.145 23.854 1.489C24.198 1.80433 24.4703 2.177 24.671 2.607C24.8717 3.00833 24.972 3.424 24.972 3.854V22H18.78V6.176H6.568ZM51.1879 0.370999C51.5892 0.370999 51.9906 0.471332 52.3919 0.671999C52.8219 0.872666 53.1946 1.145 53.5099 1.489C53.8539 1.80433 54.1262 2.177 54.3269 2.607C54.5276 3.00833 54.6279 3.424 54.6279 3.854V18.517C54.6279 18.947 54.5276 19.377 54.3269 19.807C54.1262 20.2083 53.8539 20.581 53.5099 20.925C53.1946 21.2403 52.8219 21.4983 52.3919 21.699C51.9906 21.8997 51.5892 22 51.1879 22H31.2789C30.8776 22 30.4619 21.8997 30.0319 21.699C29.6306 21.4983 29.2579 21.2403 28.9139 20.925C28.5986 20.581 28.3406 20.2083 28.1399 19.807C27.9392 19.377 27.8389 18.947 27.8389 18.517V3.854C27.8389 3.424 27.9392 3.00833 28.1399 2.607C28.3406 2.177 28.5986 1.80433 28.9139 1.489C29.2579 1.145 29.6306 0.872666 30.0319 0.671999C30.4619 0.471332 30.8776 0.370999 31.2789 0.370999H51.1879ZM48.4359 6.176H34.0309V16.195H48.4359V6.176ZM83.1164 2.822C83.4031 3.45267 83.5464 4.26967 83.5464 5.273V22.043H77.3544V8.068C77.3544 7.896 77.2541 7.724 77.0534 7.552C76.8527 7.35133 76.6091 7.251 76.3224 7.251C75.9497 7.251 75.6057 7.35133 75.2904 7.552C75.0037 7.75267 74.7314 7.99633 74.4734 8.283L64.0244 22.043H56.5854L71.6354 1.919C72.2947 1.34567 73.1691 0.944332 74.2584 0.714999C75.3764 0.485666 76.5087 0.370999 77.6554 0.370999C78.5441 0.370999 79.3467 0.442666 80.0634 0.585999C80.7801 0.700666 81.3964 0.944332 81.9124 1.317C82.4284 1.661 82.8297 2.16267 83.1164 2.822ZM127.441 22C127.04 22 126.624 21.8997 126.194 21.699C125.793 21.4983 125.42 21.2403 125.076 20.925C124.761 20.581 124.503 20.2083 124.302 19.807C124.101 19.377 124.001 18.947 124.001 18.517V3.854C124.001 3.424 124.101 3.00833 124.302 2.607C124.503 2.177 124.761 1.80433 125.076 1.489C125.42 1.145 125.793 0.872666 126.194 0.671999C126.624 0.471332 127.04 0.370999 127.441 0.370999H148.253V6.176H130.193V8.541H148.21V13.83H130.193V16.195H148.253V22H127.441ZM157.925 0.370999L163.429 6.692L168.976 0.370999H176.673L167.299 11.207L176.673 22H168.976L163.429 15.679L157.925 22H150.228L159.559 11.207L150.228 0.370999H157.925Z" fill="white"/>
<path d="M86.292 22V8.627H92.527V22H86.292ZM92.527 0.370999V6.176H86.292V0.370999H92.527ZM95.2783 6.176V0.370999H121.25V6.176H111.36V22H105.168V6.176H95.2783Z" fill="#D757F6"/>
</svg>
