<svg width="34" height="60" viewBox="0 0 34 60" fill="none" xmlns="http://www.w3.org/2000/svg">
<path d="M32.6998 1.91434C33.5323 2.7414 34 3.86299 34 5.03246C34 6.20192 33.5323 7.32351 32.6998 8.15057L10.7187 29.9818L32.6998 51.8131C33.5087 52.6449 33.9563 53.7589 33.9462 54.9153C33.9361 56.0717 33.4691 57.1779 32.6458 57.9956C31.8224 58.8133 30.7087 59.2771 29.5443 59.2872C28.38 59.2972 27.2583 58.8527 26.4208 58.0493L1.30016 33.0999C0.467668 32.2729 1.34207e-06 31.1513 1.29066e-06 29.9818C1.23924e-06 28.8124 0.467667 27.6908 1.30016 26.8637L26.4208 1.91434C27.2535 1.08752 28.3828 0.623046 29.5603 0.623046C30.7378 0.623046 31.8671 1.08752 32.6998 1.91434Z" fill="#1464F6"/>
</svg>
